<?xml version="1.0" standalone="no"?>
<!DOCTYPE svg PUBLIC "-//W3C//DTD SVG 20010904//EN"
 "http://www.w3.org/TR/2001/REC-SVG-20010904/DTD/svg10.dtd">
<svg version="1.0" xmlns="http://www.w3.org/2000/svg"
 width="1181.000000pt" height="1181.000000pt" viewBox="0 0 1181.000000 1181.000000"
 preserveAspectRatio="xMidYMid meet">
<metadata>
Created by potrace 1.11, written by Peter Selinger 2001-2013
</metadata>
<g transform="translate(0.000000,1181.000000) scale(0.100000,-0.100000)"
fill="#000000" stroke="none">
<path d="M4948 11586 c-1 -2 -55 -6 -118 -10 -63 -3 -126 -8 -140 -10 -14 -3
-54 -7 -90 -10 -93 -9 -151 -16 -180 -22 -14 -3 -36 -8 -50 -10 -158 -27 -386
-87 -443 -117 -21 -11 -24 -17 -15 -24 17 -14 189 -72 247 -84 119 -24 310
-58 351 -63 25 -3 70 -8 100 -11 30 -3 69 -8 85 -11 163 -23 896 -23 1050 1
17 3 57 7 90 10 56 5 99 10 185 21 155 20 403 82 508 127 26 11 30 16 20 24
-35 29 -285 98 -463 127 -76 13 -95 16 -170 25 -44 6 -107 13 -140 16 -33 3
-80 8 -105 11 -48 6 -716 15 -722 10z"/>
<path d="M6604 10981 c-8 -7 -109 -41 -139 -47 -5 -1 -47 -11 -92 -23 -46 -12
-104 -24 -130 -27 -26 -3 -51 -8 -55 -10 -4 -2 -26 -7 -50 -10 -24 -3 -65 -9
-93 -14 -67 -12 -123 -18 -230 -26 -49 -3 -99 -8 -110 -10 -117 -22 -901 -21
-967 1 -7 2 -54 6 -104 9 -51 3 -98 8 -105 10 -8 3 -36 7 -64 10 -102 11 -279
41 -400 70 -17 4 -142 42 -207 63 -14 4 -18 0 -18 -18 -6 -465 -10 -634 -14
-679 -13 -137 -20 -201 -31 -270 -26 -165 -26 -161 -45 -255 -53 -256 -150
-561 -256 -805 -57 -131 -184 -378 -246 -480 -36 -58 -195 -302 -355 -542
-160 -240 -313 -476 -340 -525 -120 -212 -223 -494 -262 -718 -6 -33 -13 -69
-15 -81 -14 -69 -21 -194 -21 -369 0 -174 9 -348 20 -365 2 -3 6 -26 10 -50
17 -115 81 -350 119 -435 8 -16 17 -41 21 -55 14 -46 92 -204 150 -304 139
-241 309 -439 560 -655 61 -51 124 -105 140 -120 17 -14 77 -66 135 -116 l105
-90 357 0 c197 0 359 2 359 5 1 3 3 106 4 230 2 199 5 232 23 285 21 58 21 61
3 75 -10 8 -54 43 -97 77 -348 273 -598 680 -682 1113 -31 155 -33 180 -37
350 -7 307 53 577 189 855 80 163 149 267 315 475 372 466 646 923 885 1480
49 113 95 220 103 239 8 18 75 173 149 344 73 170 137 314 141 318 4 4 39 -65
77 -154 38 -89 77 -180 87 -202 10 -22 79 -184 154 -360 75 -176 181 -410 235
-520 83 -170 128 -252 259 -477 103 -177 291 -445 451 -643 270 -335 393 -562
469 -860 21 -84 24 -104 45 -253 13 -91 14 -386 2 -447 -4 -16 -15 -78 -27
-138 -80 -432 -344 -857 -707 -1139 -68 -52 -91 -76 -86 -87 30 -73 35 -117
38 -331 2 -124 4 -227 5 -230 0 -3 162 -5 359 -5 l358 0 244 210 c344 294 466
423 614 645 174 261 306 578 363 870 31 164 40 278 38 490 -2 124 -5 234 -8
245 -2 11 -8 47 -12 80 -3 32 -8 62 -10 65 -2 3 -6 25 -10 50 -16 108 -94 363
-147 480 -98 216 -125 260 -485 801 -224 335 -443 684 -443 704 0 2 -26 57
-58 122 -32 65 -69 145 -82 178 -13 33 -27 65 -31 70 -4 6 -12 26 -17 45 -6
19 -27 80 -47 135 -98 271 -187 666 -210 935 -4 41 -9 84 -12 95 -2 11 -6 178
-9 370 -3 193 -7 351 -8 352 -1 2 -7 -1 -12 -6z"/>
<path d="M5175 8778 c-73 -171 -231 -485 -328 -654 -184 -322 -353 -568 -616
-899 -148 -186 -202 -272 -275 -435 -25 -58 -75 -214 -81 -256 -3 -21 -8 -46
-11 -54 -3 -8 -7 -33 -10 -55 -3 -22 -7 -56 -10 -75 -7 -43 -5 -199 2 -283 41
-488 326 -925 771 -1185 l71 -42 171 0 171 0 0 199 0 200 200 -1 200 -1 0
-198 0 -199 171 0 171 0 83 50 c103 62 240 165 302 227 207 206 348 450 417
718 35 140 41 194 40 385 0 251 -41 423 -154 655 -61 126 -113 204 -270 400
-284 354 -513 707 -710 1090 -85 167 -221 458 -235 503 -3 12 -10 22 -14 22
-4 0 -29 -51 -56 -112z m215 -2230 c164 -164 233 -249 297 -368 37 -69 95
-219 107 -280 3 -14 7 -34 9 -45 8 -36 20 -139 21 -180 l1 -40 -197 -1 c-196
-2 -198 -2 -199 20 -1 22 -2 33 -13 109 -14 101 -90 267 -160 352 l-25 29 -26
-29 c-94 -107 -172 -313 -175 -461 0 -21 -3 -21 -197 -20 l-198 1 1 50 c6 248
118 526 288 713 67 74 299 302 307 302 3 0 75 -69 159 -152z"/>
<path d="M4652 4440 c-17 -5 -18 -18 -18 -200 l1 -195 595 0 596 0 0 197 c1
136 -3 198 -10 199 -61 3 -1150 3 -1164 -1z"/>
<path d="M3335 3642 c-16 -2 -55 -10 -85 -19 -30 -8 -59 -16 -65 -17 -5 -1
-27 -10 -49 -19 -21 -9 -40 -17 -43 -17 -15 0 -154 -99 -200 -143 -223 -210
-303 -540 -204 -830 67 -195 222 -367 411 -459 117 -57 201 -73 370 -72 172 0
273 16 430 66 184 58 366 153 509 265 118 93 253 246 366 418 172 262 304 418
489 580 73 64 227 182 282 216 19 11 34 24 34 28 0 4 -326 8 -725 8 -399 0
-725 -1 -725 -2 0 -2 13 -31 30 -66 84 -180 97 -391 34 -578 -79 -237 -271
-427 -510 -505 -68 -22 -87 -26 -171 -33 l-73 -6 3 198 2 198 40 4 c200 16
365 210 350 411 -8 104 -38 175 -112 262 -25 30 -101 77 -153 95 -43 16 -172
25 -235 17z"/>
<path d="M6818 3645 c-2 -1 -34 -5 -73 -9 -86 -8 -113 -12 -238 -37 -557 -114
-1066 -470 -1372 -961 -180 -286 -369 -484 -626 -653 l-102 -68 109 -54 c129
-64 195 -109 457 -305 222 -167 354 -259 442 -308 230 -127 313 -164 520 -235
65 -22 203 -62 243 -70 9 -2 37 -8 62 -14 61 -13 97 -20 145 -26 22 -3 51 -7
65 -10 79 -16 235 -20 770 -20 l595 0 -1 545 c0 392 -4 560 -13 600 -35 160
-30 145 -84 262 -51 111 -109 192 -204 285 -86 85 -148 130 -252 183 -73 36
-190 76 -251 85 -25 4 -63 10 -85 14 -97 18 -243 -1 -342 -45 -216 -94 -369
-329 -357 -546 9 -173 184 -254 323 -150 54 40 70 91 73 228 l3 119 198 1 197
2 0 -127 c0 -69 -7 -155 -14 -191 -67 -314 -362 -515 -686 -468 -87 13 -230
82 -296 145 -86 81 -160 203 -180 298 -14 67 -16 88 -15 160 2 131 19 217 67
344 113 291 374 522 678 599 145 36 354 37 526 2 30 -6 65 -13 77 -16 30 -6
165 -56 233 -86 107 -48 242 -139 350 -237 25 -22 48 -41 51 -41 15 0 -14 184
-41 269 -86 261 -334 477 -605 526 -36 7 -341 15 -347 10z"/>
<path d="M8979 3049 c-43 -7 -76 -24 -112 -58 -47 -43 -57 -81 -57 -212 0 -66
-3 -120 -7 -120 -5 -1 -138 -2 -298 -3 l-290 -1 -3 -397 -2 -398 262 1 c145 0
280 0 301 0 l37 -1 0 -120 c0 -80 5 -132 14 -154 18 -44 78 -100 118 -112 18
-6 141 -10 273 -9 204 1 245 4 272 18 48 25 100 83 107 119 9 45 7 1278 -2
1308 -21 71 -77 123 -148 136 -46 9 -417 11 -465 3z"/>
<path d="M3625 1659 c-196 -17 -276 -34 -416 -88 -201 -78 -379 -196 -524
-349 l-40 -42 0 -153 1 -152 1318 -3 1319 -2 -137 82 c-107 65 -483 333 -576
411 -98 82 -286 180 -444 232 -122 40 -187 53 -309 61 -51 3 -96 6 -102 8 -5
1 -46 -1 -90 -5z"/>
<path d="M2260 472 c-6 -2 -10 -78 -10 -200 l0 -197 2979 0 2980 0 3 115 c2
63 1 153 -2 200 l-5 85 -2968 0 c-1632 0 -2972 -1 -2977 -3z"/>
</g>
</svg>
